<svg width="20" height="20" viewBox="0 0 20 20" fill="none" xmlns="http://www.w3.org/2000/svg">
<g clip-path="url(#clip0_3021_13788)">
<path d="M9.99984 18.3332C14.6022 18.3332 18.3332 14.6022 18.3332 9.99984C18.3332 5.39746 14.6022 1.6665 9.99984 1.6665C5.39746 1.6665 1.6665 5.39746 1.6665 9.99984C1.6665 14.6022 5.39746 18.3332 9.99984 18.3332Z" stroke="#2FDAC2" stroke-width="1.5" stroke-linecap="round" stroke-linejoin="round"/>
<path d="M11.5 7.5C11.5 8.32843 10.8284 9 10 9C9.17157 9 8.5 8.32843 8.5 7.5C8.5 6.67157 9.17157 6 10 6C10.8284 6 11.5 6.67157 11.5 7.5Z" stroke="#2FDAC2" stroke-width="1.5"/>
<path d="M14.5 12.5C14.5 13.3284 13.8284 14 13 14C12.1716 14 11.5 13.3284 11.5 12.5C11.5 11.6716 12.1716 11 13 11C13.8284 11 14.5 11.6716 14.5 12.5Z" stroke="#2FDAC2" stroke-width="1.5"/>
<path d="M8.5 12.5C8.5 13.3284 7.82843 14 7 14C6.17157 14 5.5 13.3284 5.5 12.5C5.5 11.6716 6.17157 11 7 11C7.82843 11 8.5 11.6716 8.5 12.5Z" stroke="#2FDAC2" stroke-width="1.5"/>
</g>
<defs>
<clipPath id="clip0_3021_13788">
<rect width="20" height="20" fill="white"/>
</clipPath>
</defs>
</svg>
