<svg width="14" height="14" viewBox="0 0 14 14" fill="none" xmlns="http://www.w3.org/2000/svg">
<g opacity="0.75">
<path d="M1.75 6.40869V9.03754C1.75 10.6898 1.75 11.516 2.26256 12.0293C2.77513 12.5427 3.60008 12.5427 5.25 12.5427H8.74998C10.3999 12.5427 11.2248 12.5427 11.7374 12.0293C12.25 11.516 12.25 10.6898 12.25 9.03754V6.40869" stroke="#DA302B"/>
<path d="M4.08301 10.4849H6.41632" stroke="#DA302B" stroke-linecap="round"/>
<path d="M10.3804 1.4586L3.58699 1.47555C2.57306 1.42338 2.31309 2.20416 2.31309 2.58584C2.31309 2.9272 2.26908 3.42485 1.64765 4.36018C1.02622 5.2955 1.07291 5.57336 1.42334 6.22088C1.71417 6.75831 2.45391 6.96819 2.83962 7.00354C4.06474 7.03136 4.6608 5.9732 4.6608 5.22953C5.26856 7.09816 6.99701 7.09816 7.76712 6.88448C8.53876 6.6704 9.19973 5.90413 9.35572 5.22953C9.44666 6.06787 9.72269 6.55711 10.5382 6.89323C11.383 7.24142 12.1095 6.70925 12.474 6.36811C12.8386 6.02698 13.0725 5.2696 12.4227 4.4372C11.9746 3.86315 11.7878 3.32234 11.7265 2.76184C11.6909 2.43707 11.6597 2.08809 11.4313 1.86601C11.0974 1.54146 10.6183 1.44298 10.3804 1.4586Z" stroke="#DA302B" stroke-linecap="round" stroke-linejoin="round"/>
</g>
</svg>
