<svg width="20" height="20" viewBox="0 0 20 20" fill="none" xmlns="http://www.w3.org/2000/svg">
<path fill-rule="evenodd" clip-rule="evenodd" d="M4.04016 9.29878C4.00278 9.30769 3.96457 9.31217 3.92624 9.31213L3.92703 9.3113C3.80056 9.31123 3.67854 9.26198 3.58431 9.17298C3.49008 9.08397 3.43025 8.96145 3.41625 8.82883C3.40225 8.69621 3.43507 8.56279 3.50843 8.4541C3.58179 8.3454 3.69054 8.26904 3.81391 8.23961C4.23196 8.13828 4.61453 7.91482 4.91783 7.59481C5.22114 7.2748 5.43294 6.87117 5.52899 6.4301C5.55909 6.28976 5.64081 6.16778 5.75616 6.09101C5.87151 6.01423 6.01104 5.98895 6.14406 6.02071C6.27708 6.05248 6.39269 6.13869 6.46546 6.26039C6.53823 6.38209 6.56219 6.5293 6.53208 6.66965C6.39272 7.31059 6.08505 7.89715 5.64433 8.36214C5.2036 8.82713 4.64765 9.15173 4.04016 9.29878ZM14.2475 11.7574C14.6307 11.3129 15.1157 10.9799 15.6561 10.7903L15.6549 10.7894C15.719 10.7671 15.7867 10.7583 15.854 10.7636C15.9214 10.7688 15.9871 10.788 16.0474 10.8201C16.1077 10.8521 16.1614 10.8964 16.2055 10.9504C16.2496 11.0043 16.2832 11.0669 16.3044 11.1346C16.3256 11.2022 16.3339 11.2736 16.3289 11.3447C16.3239 11.4157 16.3057 11.485 16.2753 11.5487C16.245 11.6123 16.203 11.669 16.1519 11.7155C16.1007 11.762 16.0414 11.7975 15.9773 11.8198C15.6053 11.9505 15.2714 12.18 15.0076 12.4861C14.7439 12.7923 14.5593 13.1648 14.4714 13.568C14.4565 13.6375 14.4288 13.7032 14.3898 13.7614C14.3508 13.8195 14.3014 13.8691 14.2443 13.9071C14.1872 13.9451 14.1235 13.9709 14.0569 13.9829C13.9904 13.995 13.9222 13.9931 13.8564 13.9774C13.7905 13.9616 13.7282 13.9324 13.6731 13.8913C13.6179 13.8501 13.571 13.798 13.535 13.7377C13.4989 13.6774 13.4745 13.6103 13.4631 13.5401C13.4516 13.4698 13.4534 13.3979 13.4683 13.3284C13.5961 12.7429 13.8644 12.2019 14.2475 11.7574ZM15.0088 7.51323C15.2725 7.81938 15.6065 8.04882 15.9785 8.17952C16.1074 8.2248 16.2142 8.32213 16.2753 8.45024C16.3367 8.57875 16.3471 8.72771 16.3044 8.86434C16.2616 9.00098 16.1692 9.1141 16.0474 9.17882C15.9256 9.24355 15.7844 9.25457 15.6549 9.20947C15.1147 9.0196 14.6298 8.68634 14.2469 8.2417C13.864 7.79706 13.5959 7.25599 13.4683 6.67048C13.4535 6.60091 13.4517 6.52892 13.4632 6.45864C13.4747 6.38835 13.4992 6.32114 13.5353 6.26084C13.5714 6.20055 13.6184 6.14834 13.6736 6.10721C13.7289 6.06608 13.7912 6.03683 13.8572 6.02113C13.9231 6.00543 13.9913 6.00358 14.058 6.0157C14.1246 6.02782 14.1883 6.05366 14.2454 6.09176C14.3026 6.12985 14.3521 6.17945 14.391 6.23772C14.43 6.29598 14.4577 6.36178 14.4726 6.43136C14.5605 6.83453 14.7451 7.20708 15.0088 7.51323ZM9.63701 6.39996C9.73344 6.29822 9.86423 6.24106 10.0006 6.24106C10.0682 6.241 10.1351 6.25499 10.1975 6.28223C10.2599 6.30947 10.3167 6.34943 10.3645 6.39981C10.4123 6.45019 10.4502 6.51002 10.476 6.57587C10.5019 6.64172 10.5152 6.7123 10.5152 6.78358V7.2105C10.7541 7.28929 10.9737 7.42228 11.1587 7.60013C11.3436 7.77799 11.4895 7.99639 11.586 8.24003C11.6387 8.37285 11.6393 8.52234 11.5876 8.65562C11.5359 8.7889 11.4361 8.89506 11.3103 8.95073C11.1844 9.0064 11.0427 9.00703 10.9164 8.95248C10.79 8.89793 10.6894 8.79267 10.6366 8.65986C10.5842 8.52732 10.4957 8.41414 10.3824 8.33459C10.2691 8.25505 10.1359 8.2127 9.99982 8.2129C9.65649 8.2129 9.30999 8.40529 9.30999 8.83513C9.30999 8.94405 9.30999 9.27666 10.1145 9.47071L10.1303 9.47489C11.5108 9.81417 11.7173 10.678 11.7173 11.1642C11.7173 11.958 11.226 12.5906 10.514 12.7993V13.2166C10.514 13.3605 10.4599 13.4985 10.3634 13.6002C10.267 13.702 10.1362 13.7591 9.99982 13.7591C9.86344 13.7591 9.73265 13.702 9.63622 13.6002C9.53979 13.4985 9.48561 13.3605 9.48561 13.2166V12.7897C9.24653 12.711 9.02668 12.5781 8.84149 12.4003C8.65631 12.2224 8.51028 12.0039 8.41369 11.7601C8.36092 11.6273 8.36032 11.4778 8.41203 11.3445C8.46373 11.2113 8.5635 11.1051 8.68938 11.0494C8.81527 10.9938 8.95696 10.9931 9.08328 11.0477C9.20961 11.1022 9.31023 11.2075 9.36299 11.3403C9.41543 11.4729 9.50389 11.586 9.61723 11.6656C9.73057 11.7451 9.8637 11.7875 9.99982 11.7873C10.3432 11.7873 10.6896 11.5949 10.6896 11.165C10.6896 11.0561 10.6896 10.7235 9.88511 10.5295L9.86929 10.5253C8.48884 10.186 8.28237 9.32215 8.28237 8.83597C8.28237 8.04222 8.77442 7.40956 9.4864 7.2009V6.78358C9.4864 6.63969 9.54058 6.5017 9.63701 6.39996ZM12.6768 10.3835C12.5803 10.2818 12.5262 10.1438 12.5262 9.99988C12.5262 9.85599 12.5803 9.718 12.6768 9.61626C12.7732 9.51452 12.904 9.45736 13.0404 9.45736H13.9386C14.075 9.45736 14.2058 9.51452 14.3022 9.61626C14.3987 9.718 14.4529 9.85599 14.4529 9.99988C14.4529 10.1438 14.3987 10.2818 14.3022 10.3835C14.2058 10.4852 14.075 10.5424 13.9386 10.5424H13.0404C12.904 10.5424 12.7732 10.4852 12.6768 10.3835Z" fill="#434253"/>
<path d="M14.2475 11.7574C14.6307 11.3129 15.1157 10.9799 15.6561 10.7903L15.6549 10.7894C15.719 10.7671 15.7867 10.7583 15.854 10.7636C15.9214 10.7688 15.9871 10.788 16.0474 10.8201C16.1077 10.8521 16.1614 10.8964 16.2055 10.9504C16.2496 11.0043 16.2832 11.0669 16.3044 11.1346C16.3256 11.2022 16.3339 11.2736 16.3289 11.3447C16.3239 11.4157 16.3057 11.485 16.2753 11.5487C16.245 11.6123 16.203 11.669 16.1519 11.7155C16.1007 11.762 16.0414 11.7975 15.9773 11.8198C15.6053 11.9505 15.2714 12.18 15.0076 12.4861C14.7439 12.7923 14.5593 13.1648 14.4714 13.568C14.4565 13.6375 14.4288 13.7032 14.3898 13.7614C14.3508 13.8195 14.3014 13.8691 14.2443 13.9071C14.1872 13.9451 14.1235 13.9709 14.0569 13.9829C13.9904 13.995 13.9222 13.9931 13.8564 13.9774C13.7905 13.9616 13.7282 13.9324 13.6731 13.8913C13.6179 13.8501 13.571 13.798 13.535 13.7377C13.4989 13.6774 13.4745 13.6103 13.4631 13.5401C13.4516 13.4698 13.4534 13.3979 13.4683 13.3284C13.5961 12.7429 13.8644 12.2019 14.2475 11.7574Z" fill="#434253"/>
<path d="M12.6768 10.3835C12.5803 10.2818 12.5262 10.1438 12.5262 9.99988C12.5262 9.85599 12.5803 9.718 12.6768 9.61626C12.7732 9.51452 12.904 9.45736 13.0404 9.45736H13.9386C14.075 9.45736 14.2058 9.51452 14.3022 9.61626C14.3987 9.718 14.4529 9.85599 14.4529 9.99988C14.4529 10.1438 14.3987 10.2818 14.3022 10.3835C14.2058 10.4852 14.075 10.5424 13.9386 10.5424H13.0404C12.904 10.5424 12.7732 10.4852 12.6768 10.3835Z" fill="#434253"/>
<path d="M5.64974 11.4968C5.2666 11.0523 4.78153 10.7193 4.24115 10.5297L4.24234 10.5289C4.17822 10.5065 4.11055 10.4977 4.04321 10.503C3.97586 10.5083 3.91016 10.5275 3.84985 10.5595C3.78954 10.5916 3.73581 10.6358 3.69171 10.6898C3.64761 10.7437 3.61402 10.8063 3.59286 10.874C3.57169 10.9416 3.56336 11.013 3.56834 11.0841C3.57333 11.1551 3.59153 11.2245 3.6219 11.2881C3.65228 11.3517 3.69423 11.4084 3.74538 11.4549C3.79652 11.5015 3.85585 11.5369 3.91997 11.5592C4.29199 11.6899 4.62589 11.9194 4.8896 12.2255C5.15331 12.5317 5.33796 12.9042 5.42581 13.3074C5.44072 13.3769 5.46845 13.4426 5.50743 13.5008C5.54641 13.559 5.59587 13.6085 5.65298 13.6465C5.71009 13.6845 5.77375 13.7103 5.8403 13.7223C5.90686 13.7344 5.97501 13.7325 6.04088 13.7168C6.10674 13.7011 6.16903 13.6718 6.22417 13.6307C6.27932 13.5896 6.32625 13.5374 6.36228 13.4771C6.39831 13.4169 6.42274 13.3497 6.43417 13.2795C6.4456 13.2093 6.44382 13.1373 6.42891 13.0679C6.3012 12.4823 6.03288 11.9413 5.64974 11.4968Z" fill="#434253"/>
<path d="M7.22049 10.1229C7.31692 10.0212 7.37109 9.88318 7.37109 9.7393C7.37109 9.59541 7.31692 9.45742 7.22049 9.35568C7.12405 9.25393 6.99326 9.19678 6.85689 9.19678H5.95861C5.82223 9.19678 5.69144 9.25393 5.59501 9.35568C5.49857 9.45742 5.4444 9.59541 5.4444 9.7393C5.4444 9.88318 5.49857 10.0212 5.59501 10.1229C5.69144 10.2247 5.82223 10.2818 5.95861 10.2818H6.85689C6.99326 10.2818 7.12405 10.2247 7.22049 10.1229Z" fill="#434253"/>
<path fill-rule="evenodd" clip-rule="evenodd" d="M2.94697 4.16652H17.0525C17.3922 4.16696 17.7179 4.30957 17.9581 4.56306C18.1983 4.81655 18.3333 5.16021 18.3336 5.51864V14.4815C18.3332 14.8398 18.1981 15.1834 17.9579 15.4368C17.7177 15.6902 17.3921 15.8327 17.0525 15.8332H6.96016C6.82379 15.8332 6.693 15.776 6.59656 15.6743C6.50013 15.5725 6.44595 15.4345 6.44595 15.2907C6.44595 15.1468 6.50013 15.0088 6.59656 14.907C6.693 14.8053 6.82379 14.7481 6.96016 14.7481H17.0525C17.1195 14.748 17.1837 14.7199 17.2311 14.6699C17.2785 14.6199 17.3051 14.5522 17.3052 14.4815V5.51864C17.3052 5.44788 17.2786 5.38001 17.2312 5.32993C17.1838 5.27985 17.1195 5.25167 17.0525 5.25156H2.94697C2.88011 5.252 2.81612 5.28033 2.76899 5.33037C2.72186 5.38041 2.69541 5.44809 2.69541 5.51864V10.7089C2.69541 10.8528 2.64123 10.9908 2.5448 11.0925C2.44837 11.1942 2.31758 11.2514 2.1812 11.2514C2.04482 11.2514 1.91403 11.1942 1.8176 11.0925C1.72117 10.9908 1.66699 10.8528 1.66699 10.7089V5.51864C1.66731 5.16043 1.80221 4.81695 2.04214 4.5635C2.28207 4.31005 2.60745 4.16729 2.94697 4.16652Z" fill="#434253"/>
<path fill-rule="evenodd" clip-rule="evenodd" d="M17.0537 4.1665H2.94819C2.60846 4.16695 2.28233 4.31001 2.04214 4.5635C1.80221 4.81695 1.66731 5.16043 1.66699 5.51864L1.66702 14.4815C1.66744 14.8398 1.80255 15.1834 2.04273 15.4368C2.2829 15.6902 2.60853 15.8327 2.94819 15.8332H13.0405C13.1769 15.8332 13.3077 15.776 13.4041 15.6743C13.5005 15.5725 13.5547 15.4345 13.5547 15.2906C13.5547 15.1468 13.5005 15.0088 13.4041 14.907C13.3077 14.8053 13.1769 14.7481 13.0405 14.7481H2.94819C2.88118 14.748 2.81695 14.7199 2.76958 14.6699C2.7222 14.6199 2.69554 14.5521 2.69543 14.4815L2.69541 5.51864C2.69541 5.44809 2.72186 5.38041 2.76899 5.33037C2.81638 5.2803 2.88112 5.25165 2.94819 5.25154H17.0537C17.1205 5.25198 17.1841 5.27989 17.2312 5.32993C17.2786 5.38001 17.3052 5.44788 17.3052 5.51864L17.3052 10.7089C17.3052 10.8527 17.3594 10.9907 17.4559 11.0925C17.5523 11.1942 17.6831 11.2514 17.8195 11.2514C17.9558 11.2514 18.0866 11.1942 18.1831 11.0925C18.2795 10.9907 18.3337 10.8527 18.3337 10.7089L18.3336 5.51864C18.3333 5.16021 18.1983 4.81655 17.9581 4.56306C17.7181 4.30961 17.3932 4.16728 17.0537 4.1665Z" fill="#434253"/>
</svg>
