<svg width="24" height="24" viewBox="0 0 24 24" fill="none" xmlns="http://www.w3.org/2000/svg">
<path d="M4.19411 0.56444C3.22933 1.16108 2.09984 2.64074 1.34684 4.31132C0.852686 5.40913 0.73503 6.05349 0.73503 7.38996C0.73503 9.32306 1.04094 10.1822 2.54693 12.4017C3.84114 14.3109 4.07645 15.5042 3.53524 17.4135C3.22933 18.4158 2.80577 19.1079 1.86453 20.158C1.57651 20.4793 1.30807 20.8165 1.09119 21.1032C0.75654 21.5454 0.675064 22.1735 1.06447 22.5684C1.74687 23.2605 2.35868 22.998 3.79408 21.4228C5.34713 19.7523 6.02954 18.0101 6.02954 15.8622C6.02954 14.0007 5.65304 12.9029 4.38236 10.8982C3.15874 8.98895 2.8293 7.96273 3.01755 6.65013C3.2058 5.26593 3.65289 4.40678 5.04123 2.83166C5.7001 2.11569 6.21779 1.4236 6.21779 1.30427C6.21779 1.1439 6.21779 0.703438 6.02359 0.394747C5.65945 -0.184082 4.76583 0.189243 4.19411 0.56444Z" fill="#DA302B"/>
<path d="M12.7996 0.56444C11.8348 1.16108 10.7053 2.64074 9.95231 4.31132C9.45815 5.40913 9.3405 6.05349 9.3405 7.38996C9.3405 9.32306 9.6464 10.1822 11.1524 12.4017C12.4466 14.3109 12.6819 15.5042 12.1407 17.4135C11.8348 18.4158 11.4112 19.1079 10.47 20.158C10.182 20.4793 9.91354 20.8165 9.69666 21.1032C9.36201 21.5454 9.28053 22.1735 9.66994 22.5684C10.3523 23.2605 10.9641 22.998 12.3995 21.4228C13.9526 19.7523 14.635 18.0101 14.635 15.8622C14.635 14.0007 14.2585 12.9029 12.9878 10.8982C11.7642 8.98895 11.4348 7.96273 11.623 6.65013C11.8113 5.26593 12.2584 4.40678 13.6467 2.83166C14.3056 2.11569 14.8233 1.4236 14.8233 1.30427C14.8233 1.1439 14.8233 0.703438 14.6291 0.394747C14.2649 -0.184082 13.3713 0.189243 12.7996 0.56444Z" fill="#DA302B"/>
<path d="M21.405 0.56444C20.4403 1.16108 19.3108 2.64074 18.5578 4.31132C18.0636 5.40913 17.946 6.05349 17.946 7.38996C17.946 9.32306 18.2519 10.1822 19.7579 12.4017C21.0521 14.3109 21.2874 15.5042 20.7462 17.4135C20.4403 18.4158 20.0167 19.1079 19.0755 20.158C18.7874 20.4793 18.519 20.8165 18.3021 21.1032C17.9675 21.5454 17.886 22.1735 18.2754 22.5684C18.9578 23.2605 19.5696 22.998 21.005 21.4228C22.5581 19.7523 23.2405 18.0101 23.2405 15.8622C23.2405 14.0007 22.864 12.9029 21.5933 10.8982C20.3697 8.98895 20.0402 7.96273 20.2285 6.65013C20.4167 5.26593 20.8638 4.40678 22.2522 2.83166C22.911 2.11569 23.4287 1.4236 23.4287 1.30427C23.4287 1.1439 23.4287 0.703438 23.2345 0.394747C22.8704 -0.184082 21.9768 0.189243 21.405 0.56444Z" fill="#DA302B"/>
</svg>
