<svg width="20" height="20" viewBox="0 0 20 20" fill="none" xmlns="http://www.w3.org/2000/svg">
  <path d="M16.1824 13.0944C19.4746 8.91983 18.5852 4.77923 16.2201 3.32846C13.9854 1.95769 12.035 2.51009 10.8633 3.39001L10.0011 4.03465M16.1824 13.0944C15.3921 14.0963 14.3611 15.1003 13.0517 16.0695C11.7632 17.0232 11.119 17.5 10.0013 17.5C8.88363 17.5 8.2394 17.0232 6.95091 16.0695C0.186068 11.0624 0.849693 5.12744 3.7825 3.32846C6.01721 1.95769 7.96765 2.51009 9.1393 3.39001L10.0011 4.03465M16.1824 13.0944L11.5781 7.87066C11.3896 7.65683 11.0741 7.6108 10.8323 7.76187L9.01055 8.9005C8.36947 9.30117 7.53742 9.211 6.99705 8.68225C6.28328 7.98385 6.35529 6.81474 7.14938 6.20922L10.0011 4.03465" stroke="currentColor" stroke-width="1.79167" stroke-linecap="round" stroke-linejoin="round"/>
</svg>
