<svg width="20" height="20" viewBox="0 0 20 20" fill="none" xmlns="http://www.w3.org/2000/svg">
<path d="M5.8335 6.98292H9.5835M9.5835 6.98292H12.0835M9.5835 6.98292V5.8335M14.1668 6.98292H12.0835M12.0835 6.98292C11.6439 8.55483 10.7234 10.0407 9.67275 11.3467M9.67275 11.3467C8.80275 12.428 7.84354 13.3858 6.99421 14.1668M9.67275 11.3467C9.13708 10.7186 8.38708 9.70233 8.17278 9.24258M9.67275 11.3467L11.2799 13.0174" stroke="#2FDAC2" stroke-width="1.5" stroke-linecap="round" stroke-linejoin="round"/>
<path d="M2.0835 10.0002C2.0835 6.26821 2.0835 4.40224 3.24286 3.24286C4.40224 2.0835 6.26821 2.0835 10.0002 2.0835C13.7321 2.0835 15.5981 2.0835 16.7575 3.24286C17.9168 4.40224 17.9168 6.26821 17.9168 10.0002C17.9168 13.7321 17.9168 15.5981 16.7575 16.7575C15.5981 17.9168 13.7321 17.9168 10.0002 17.9168C6.26821 17.9168 4.40224 17.9168 3.24286 16.7575C2.0835 15.5981 2.0835 13.7321 2.0835 10.0002Z" stroke="#2FDAC2" stroke-width="1.5"/>
</svg>
