<svg width="15" height="14" viewBox="0 0 15 14" fill="none" xmlns="http://www.w3.org/2000/svg">
<g clip-path="url(#clip0_2916_37605)">
<path d="M12.75 5.8335C12.75 9.91683 7.5 13.4168 7.5 13.4168C7.5 13.4168 2.25 9.91683 2.25 5.8335C2.25 4.44111 2.80312 3.10575 3.78769 2.12119C4.77226 1.13662 6.10761 0.583496 7.5 0.583496C8.89239 0.583496 10.2277 1.13662 11.2123 2.12119C12.1969 3.10575 12.75 4.44111 12.75 5.8335Z" stroke="#B9BCCE" stroke-width="1.2" stroke-linecap="round" stroke-linejoin="round"/>
<path d="M7.5 7.5835C8.4665 7.5835 9.25 6.79999 9.25 5.8335C9.25 4.867 8.4665 4.0835 7.5 4.0835C6.5335 4.0835 5.75 4.867 5.75 5.8335C5.75 6.79999 6.5335 7.5835 7.5 7.5835Z" stroke="#B9BCCE" stroke-width="1.5" stroke-linecap="round" stroke-linejoin="round"/>
</g>
<defs>
<clipPath id="clip0_2916_37605">
<rect width="14" height="14" fill="white" transform="translate(0.5)"/>
</clipPath>
</defs>
</svg>
