<svg width="39" height="39" viewBox="0 0 39 39" fill="none" xmlns="http://www.w3.org/2000/svg">
<path fill-rule="evenodd" clip-rule="evenodd" d="M7.60938 19.074C7.60938 25.5289 12.8383 30.7619 19.2882 30.7619C25.7382 30.7619 30.9667 25.5289 30.9667 19.074C30.9667 12.619 25.7382 7.38602 19.2882 7.38602C12.8383 7.38602 7.60938 12.619 7.60938 19.074ZM10.6288 19.074C10.6288 14.2957 14.5133 10.4078 19.2882 10.4078C24.0631 10.4078 27.9472 14.2957 27.9472 19.074C27.9472 23.8526 24.0631 27.7405 19.2882 27.7405C14.5133 27.7405 10.6288 23.8526 10.6288 19.074Z" fill="url(#paint0_linear_6001_4796)"/>
<path fill-rule="evenodd" clip-rule="evenodd" d="M21.6797 19.0717C21.6797 22.6055 24.4463 25.7709 26.9234 27.9144C29.4 25.7709 30.9695 22.6055 30.9695 19.0717C30.9695 15.5382 29.4 12.3728 26.9234 10.2296C24.4463 12.3728 21.6797 15.5382 21.6797 19.0717ZM24.6991 19.0717C24.6991 17.7687 25.4112 16.2539 26.7461 14.6683C27.5265 15.9887 27.9501 17.5059 27.9501 19.0717C27.9501 20.6378 27.5265 22.1546 26.7461 23.475C25.4112 21.8895 24.6991 20.375 24.6991 19.0717Z" fill="url(#paint1_linear_6001_4796)"/>
<path fill-rule="evenodd" clip-rule="evenodd" d="M32.8438 10.864C34.2808 13.2693 35.1098 16.0791 35.1098 19.0804C35.1098 21.8317 34.414 24.4235 33.1903 26.6894C33.4567 26.8755 35.0236 28.0542 35.6176 28.5412C37.2129 25.7519 38.1296 22.5242 38.1296 19.0804C38.1296 15.6841 37.2387 12.4986 35.6848 9.73584C34.7492 10.1377 33.8029 10.5153 32.8438 10.864Z" fill="url(#paint2_linear_6001_4796)"/>
<path fill-rule="evenodd" clip-rule="evenodd" d="M0 19.0804C0 29.6174 8.53566 38.16 19.0652 38.16C24.7275 38.16 29.8103 35.6872 33.3023 31.7647C32.5618 31.0996 31.8076 30.4485 31.0257 29.8278C31.015 29.8194 31.0086 29.8096 30.9983 29.8016C28.059 33.0748 23.7984 35.1383 19.0652 35.1383C10.2175 35.1383 3.01944 27.9346 3.01944 19.0804C3.01944 10.2255 10.2175 3.02179 19.0652 3.02179C23.5095 3.02179 27.5375 4.84056 30.4457 7.77271C30.7949 7.59038 32.61 6.7676 33.3482 6.44852C29.8547 2.49568 24.7526 0 19.0652 0C8.53566 0 0 8.54231 0 19.0804Z" fill="url(#paint3_linear_6001_4796)"/>
<defs>
<linearGradient id="paint0_linear_6001_4796" x1="7.60934" y1="19.0741" x2="30.9669" y2="19.0741" gradientUnits="userSpaceOnUse">
<stop stop-color="#2FDAC1"/>
<stop offset="0.9999" stop-color="#2F9AE8"/>
<stop offset="1" stop-color="#2F9AE8"/>
</linearGradient>
<linearGradient id="paint1_linear_6001_4796" x1="21.6795" y1="19.0718" x2="30.9696" y2="19.0718" gradientUnits="userSpaceOnUse">
<stop stop-color="#2FDAC1"/>
<stop offset="1" stop-color="#2F9AE8"/>
</linearGradient>
<linearGradient id="paint2_linear_6001_4796" x1="32.8435" y1="19.1386" x2="38.1293" y2="19.1386" gradientUnits="userSpaceOnUse">
<stop stop-color="#DA302B"/>
<stop offset="1" stop-color="#FD9E11"/>
</linearGradient>
<linearGradient id="paint3_linear_6001_4796" x1="-0.000250513" y1="19.0802" x2="33.3483" y2="19.0802" gradientUnits="userSpaceOnUse">
<stop stop-color="#DA302B"/>
<stop offset="1" stop-color="#FD9E11"/>
</linearGradient>
</defs>
</svg>
