<svg width="35" height="35" viewBox="0 0 35 35" fill="none" xmlns="http://www.w3.org/2000/svg">
<path d="M20.5863 0.066762C23.3509 -0.219938 26.1941 0.423758 28.5709 1.86277C32.1926 4.05575 34.6411 8.03784 34.9806 12.2501C35.0179 14.9503 34.9875 17.6505 34.9986 20.3494C34.982 21.2384 35.0883 22.1716 34.688 22.9986C33.9855 24.8801 32.0849 26.2502 30.0643 26.2502C27.3066 26.2433 24.5475 26.2694 21.7899 26.2364C18.2882 26.0213 14.8542 24.5148 12.385 22.0158C9.03248 18.7519 7.85791 13.5182 9.39133 9.11434C10.4693 5.59951 13.1662 2.66084 16.5119 1.16256C17.8065 0.596054 19.1868 0.245949 20.5863 0.066762ZM20.2205 4.53817C17.2089 5.135 14.5699 7.38587 13.6176 10.3149C12.8888 12.3411 12.9592 14.6664 13.8895 16.6181C14.7521 18.6278 16.5561 20.0875 18.5063 20.9903C19.9059 21.674 21.4848 21.889 23.0293 21.9069C25.286 21.8959 27.5426 21.918 29.7993 21.8973C30.2823 21.9483 30.6868 21.5169 30.6674 21.0482C30.6743 18.6099 30.6633 16.1729 30.6716 13.7346C30.724 10.2336 28.742 6.67463 25.5109 5.18876C23.8836 4.38242 21.9914 4.23218 20.2205 4.53817Z" fill="#202124"/>
<path d="M0.0377106 22.2929C0.449016 18.6361 2.58008 15.1144 5.82773 13.3018C5.84568 14.9448 6.17417 16.5644 6.60342 18.1454C5.24528 19.5954 4.3647 21.5169 4.34124 23.5155C4.35228 25.6726 4.3371 27.8284 4.34814 29.9855C4.34676 30.3604 4.74012 30.6361 5.09484 30.6251C7.07131 30.6389 9.04779 30.6237 11.0256 30.632C12.831 30.6458 14.5977 29.991 16.0634 28.9586C16.3823 28.7409 16.639 28.4321 16.9854 28.2571C17.2946 28.2819 17.5858 28.3921 17.884 28.4721C19.122 28.8208 20.4001 29.0345 21.6837 29.1185C21.0474 30.4983 19.8687 31.5128 18.7135 32.4528C16.5548 33.9828 13.9655 34.9835 11.2975 35C9.13336 34.9931 6.9678 34.9986 4.80361 34.9973C2.22674 34.938 -0.0823688 32.5934 0.0045851 30.0034C0.0239082 27.4328 -0.0354411 24.8621 0.0377106 22.2929Z" fill="#202124"/>
</svg>
