<svg width="21" height="21" viewBox="0 0 21 21" fill="none" xmlns="http://www.w3.org/2000/svg">
<path fill-rule="evenodd" clip-rule="evenodd" d="M4.49097 10.4978C4.49097 13.8809 7.23361 16.6236 10.6167 16.6236C13.9998 16.6236 16.7423 13.8809 16.7423 10.4978C16.7423 7.11471 13.9998 4.37207 10.6167 4.37207C7.23361 4.37207 4.49097 7.11471 4.49097 10.4978ZM6.07471 10.4978C6.07471 7.99348 8.11218 5.95582 10.6167 5.95582C13.1212 5.95582 15.1585 7.99348 15.1585 10.4978C15.1585 13.0023 13.1212 15.04 10.6167 15.04C8.11218 15.04 6.07471 13.0023 6.07471 10.4978Z" fill="url(#paint0_linear_2824_8784)"/>
<path fill-rule="evenodd" clip-rule="evenodd" d="M11.8708 10.4955C11.8708 12.3476 13.322 14.0066 14.6213 15.1301C15.9203 14.0066 16.7435 12.3476 16.7435 10.4955C16.7435 8.64359 15.9203 6.98458 14.6213 5.86133C13.322 6.98458 11.8708 8.64359 11.8708 10.4955ZM13.4546 10.4955C13.4546 9.81263 13.8281 9.01867 14.5283 8.18767C14.9376 8.8797 15.1598 9.67486 15.1598 10.4955C15.1598 11.3163 14.9376 12.1113 14.5283 12.8033C13.8281 11.9723 13.4546 11.1786 13.4546 10.4955Z" fill="url(#paint1_linear_2824_8784)"/>
<path fill-rule="evenodd" clip-rule="evenodd" d="M17.7275 6.19383C18.4813 7.45446 18.9161 8.92711 18.9161 10.5001C18.9161 11.9421 18.5512 13.3005 17.9093 14.488C18.0491 14.5856 18.8709 15.2034 19.1825 15.4586C20.0192 13.9967 20.5 12.305 20.5 10.5001C20.5 8.72006 20.0328 7.05051 19.2177 5.60254C18.727 5.81317 18.2306 6.01107 17.7275 6.19383Z" fill="url(#paint2_linear_2824_8784)"/>
<path fill-rule="evenodd" clip-rule="evenodd" d="M0.5 10.5002C0.5 16.0227 4.9771 20.5 10.5 20.5C13.47 20.5 16.136 19.2039 17.9676 17.1482C17.5792 16.7995 17.1836 16.4583 16.7735 16.133C16.7679 16.1286 16.7645 16.1234 16.7591 16.1193C15.2174 17.8348 12.9826 18.9163 10.5 18.9163C5.85926 18.9163 2.08375 15.1407 2.08375 10.5002C2.08375 5.85925 5.85926 2.08375 10.5 2.08375C12.8311 2.08375 14.9438 3.03698 16.4693 4.57374C16.6524 4.47818 17.6045 4.04696 17.9917 3.87972C16.1593 1.80801 13.4831 0.5 10.5 0.5C4.9771 0.5 0.5 4.9771 0.5 10.5002Z" fill="url(#paint3_linear_2824_8784)"/>
<defs>
<linearGradient id="paint0_linear_2824_8784" x1="4.49095" y1="10.4979" x2="16.7424" y2="10.4979" gradientUnits="userSpaceOnUse">
<stop stop-color="#2FDAC1"/>
<stop offset="0.9999" stop-color="#2F9AE8"/>
<stop offset="1" stop-color="#2F9AE8"/>
</linearGradient>
<linearGradient id="paint1_linear_2824_8784" x1="11.8707" y1="10.4956" x2="16.7435" y2="10.4956" gradientUnits="userSpaceOnUse">
<stop stop-color="#2FDAC1"/>
<stop offset="1" stop-color="#2F9AE8"/>
</linearGradient>
<linearGradient id="paint2_linear_2824_8784" x1="17.7274" y1="10.5306" x2="20.4999" y2="10.5306" gradientUnits="userSpaceOnUse">
<stop stop-color="#DA302B"/>
<stop offset="1" stop-color="#FD9E11"/>
</linearGradient>
<linearGradient id="paint3_linear_2824_8784" x1="0.499869" y1="10.5001" x2="17.9917" y2="10.5001" gradientUnits="userSpaceOnUse">
<stop stop-color="#DA302B"/>
<stop offset="1" stop-color="#FD9E11"/>
</linearGradient>
</defs>
</svg>
