<svg width="21" height="20" viewBox="0 0 21 20" fill="none" xmlns="http://www.w3.org/2000/svg">
<path d="M6.43347 7.0835L8.88516 8.533C10.3145 9.37808 10.8858 9.37808 12.3151 8.533L14.7668 7.0835" stroke="#2FDAC2" stroke-width="1.5" stroke-linecap="round" stroke-linejoin="round"/>
<path d="M2.27986 11.2295C2.33434 13.7841 2.36158 15.0614 3.30419 16.0076C4.24679 16.9539 5.55867 16.9868 8.18242 17.0527C9.79948 17.0934 11.4006 17.0934 13.0177 17.0527C15.6415 16.9868 16.9533 16.9539 17.8959 16.0076C18.8386 15.0614 18.8658 13.7841 18.9202 11.2295C18.9378 10.4081 18.9378 9.59153 18.9202 8.7702C18.8658 6.21555 18.8386 4.93825 17.8959 3.99205C16.9533 3.04586 15.6415 3.0129 13.0177 2.94698C11.4006 2.90635 9.79948 2.90635 8.18241 2.94697C5.55867 3.01289 4.24679 3.04585 3.30419 3.99205C2.36158 4.93824 2.33434 6.21555 2.27986 8.77011C2.26234 9.59153 2.26234 10.4081 2.27986 11.2295Z" stroke="#2FDAC2" stroke-width="1.5" stroke-linejoin="round"/>
</svg>
