<svg width="21" height="20" viewBox="0 0 21 20" fill="none" xmlns="http://www.w3.org/2000/svg">
<path d="M8.23222 4.76019L7.89667 4.00521C7.67727 3.51157 7.56757 3.26473 7.40351 3.07584C7.19791 2.83912 6.9299 2.66495 6.63007 2.57321C6.39083 2.5 6.12072 2.5 5.58051 2.5C4.79026 2.5 4.39514 2.5 4.06345 2.65191C3.67273 2.83085 3.31987 3.2194 3.17928 3.6255C3.05993 3.97024 3.09412 4.32453 3.16249 5.03308C3.89026 12.5752 8.02519 16.7101 15.5672 17.4378C16.2758 17.5063 16.6301 17.5404 16.9748 17.4211C17.381 17.2805 17.7695 16.9276 17.9485 16.5369C18.1003 16.2052 18.1003 15.8101 18.1003 15.0198C18.1003 14.4796 18.1003 14.2095 18.0271 13.9703C17.9354 13.6704 17.7612 13.4024 17.5245 13.1968C17.3356 13.0328 17.0888 12.9231 16.5951 12.7037L15.8401 12.3681C15.3056 12.1305 15.0382 12.0118 14.7666 11.9859C14.5066 11.9612 14.2446 11.9977 14.0012 12.0924C13.747 12.1914 13.5223 12.3787 13.0728 12.7532C12.6255 13.126 12.4018 13.3124 12.1285 13.4123C11.8861 13.5008 11.5658 13.5336 11.3106 13.4959C11.0227 13.4535 10.8023 13.3358 10.3614 13.1001C8.98972 12.3671 8.23328 11.6107 7.50023 10.2389C7.26462 9.79808 7.14682 9.57758 7.1044 9.28975C7.06679 9.0345 7.09957 8.71417 7.18809 8.47192C7.28794 8.19857 7.47435 7.97488 7.84716 7.5275C8.22169 7.07807 8.40896 6.85335 8.50797 6.59909C8.60272 6.35578 8.63919 6.09367 8.61447 5.83373C8.58862 5.5621 8.46982 5.2948 8.23222 4.76019Z" stroke="#2FDAC2" stroke-width="1.5" stroke-linecap="round"/>
</svg>
