<svg width="24" height="24" viewBox="0 0 24 24" fill="none" xmlns="http://www.w3.org/2000/svg">
<path d="M1.63524 4.1238C2.23188 3.15902 3.71154 2.02952 5.38212 1.27653C6.47993 0.782374 7.12429 0.664719 8.46076 0.664719C10.3939 0.664719 11.253 0.970623 13.4725 2.47662C15.3817 3.77083 16.575 4.00614 18.4843 3.46492C19.4866 3.15902 20.1787 2.73546 21.2288 1.79421C21.5501 1.50619 21.8873 1.23776 22.174 1.02087C22.6163 0.686228 23.2443 0.604752 23.6392 0.994154C24.3313 1.67656 24.0688 2.28837 22.4936 3.72377C20.8231 5.27682 19.0809 5.95922 16.933 5.95922C15.0715 5.95922 13.9737 5.58273 11.969 4.31205C10.0597 3.08843 9.03353 2.75899 7.72093 2.94724C6.33673 3.13549 5.47758 3.58258 3.90246 4.97092C3.1865 5.62979 2.4944 6.14747 2.37507 6.14747C2.2147 6.14747 1.77424 6.14747 1.46555 5.95328C0.886719 5.58914 1.26004 4.69552 1.63524 4.1238Z" fill="#2FDAC2"/>
<path d="M1.63524 12.7293C2.23188 11.7645 3.71154 10.635 5.38212 9.882C6.47993 9.38784 7.12429 9.27019 8.46076 9.27019C10.3939 9.27019 11.253 9.57609 13.4725 11.0821C15.3817 12.3763 16.575 12.6116 18.4843 12.0704C19.4866 11.7645 20.1787 11.3409 21.2288 10.3997C21.5501 10.1117 21.8873 9.84323 22.174 9.62634C22.6163 9.2917 23.2443 9.21022 23.6392 9.59962C24.3313 10.282 24.0688 10.8938 22.4936 12.3292C20.8231 13.8823 19.0809 14.5647 16.933 14.5647C15.0715 14.5647 13.9737 14.1882 11.969 12.9175C10.0597 11.6939 9.03353 11.3645 7.72093 11.5527C6.33673 11.741 5.47758 12.188 3.90246 13.5764C3.1865 14.2353 2.4944 14.7529 2.37507 14.7529C2.2147 14.7529 1.77424 14.7529 1.46555 14.5587C0.886719 14.1946 1.26004 13.301 1.63524 12.7293Z" fill="#2FDAC2"/>
<path d="M1.63524 21.3352C2.23188 20.3704 3.71154 19.241 5.38212 18.488C6.47993 17.9938 7.12429 17.8761 8.46076 17.8761C10.3939 17.8761 11.253 18.182 13.4725 19.688C15.3817 20.9823 16.575 21.2176 18.4843 20.6763C19.4866 20.3704 20.1787 19.9469 21.2288 19.0056C21.5501 18.7176 21.8873 18.4492 22.174 18.2323C22.6163 17.8977 23.2443 17.8162 23.6392 18.2056C24.3313 18.888 24.0688 19.4998 22.4936 20.9352C20.8231 22.4882 19.0809 23.1707 16.933 23.1707C15.0715 23.1707 13.9737 22.7942 11.969 21.5235C10.0597 20.2999 9.03353 19.9704 7.72093 20.1587C6.33673 20.3469 5.47758 20.794 3.90246 22.1823C3.1865 22.8412 2.4944 23.3589 2.37507 23.3589C2.2147 23.3589 1.77424 23.3589 1.46555 23.1647C0.886719 22.8006 1.26004 21.9069 1.63524 21.3352Z" fill="#2FDAC2"/>
</svg>
