<svg width="32" height="32" viewBox="0 0 32 32" fill="none" xmlns="http://www.w3.org/2000/svg">
<path d="M15.3125 10.4001L17.375 10.4001L17.375 21.6001L15.3125 21.6001L15.3125 10.4001Z" fill="#FE9E12"/>
<path fill-rule="evenodd" clip-rule="evenodd" d="M5 5.38248L5 26.6175L5.00524 26.807L5.0058 26.8163C5.11124 28.5783 6.60387 29.9985 8.46065 29.9999L14.075 29.9999L14.075 28.7461L14.0799 28.5964C14.1557 27.5841 15.0015 26.8144 15.9999 26.8144C17.0467 26.8144 17.9262 27.6602 17.9262 28.7411L17.9262 29.9999L23.5405 30L23.7342 29.9949L23.7451 29.9943C25.5727 29.8888 26.9984 28.4048 26.9999 26.6175L27 5.38248L26.9946 5.19416L26.9941 5.18521C26.8901 3.42183 25.3974 2.00152 23.5405 2.00013L17.9262 2.00013L17.9262 3.25391L17.9213 3.40357C17.8455 4.41467 16.9997 5.18557 15.9999 5.18557C14.9546 5.18557 14.075 4.33989 14.075 3.25885L14.075 2.00013L8.46065 2L8.26696 2.00508L8.25615 2.0057C6.42579 2.11118 5.00144 3.59522 5 5.38248ZM5.67819 26.7847L5.6732 26.6131L5.6732 5.3826C5.67444 3.91647 6.83747 2.72945 8.29169 2.64292L8.4655 2.63821L13.4018 2.63821L13.4018 3.25885C13.4018 4.66535 14.555 5.82366 15.9999 5.82366C17.3834 5.82366 18.4983 4.76297 18.5936 3.44138L18.5994 3.26874L18.5994 2.63821L23.5403 2.63821C25.0164 2.63932 26.2341 3.77155 26.3217 5.21645L26.3267 5.38691L26.3267 26.6173C26.3255 28.0835 25.1611 29.2706 23.7094 29.3571L23.5357 29.3618L18.5994 29.3618L18.5994 28.7411C18.5994 27.3345 17.4461 26.1763 15.9999 26.1763C14.6178 26.1763 13.5028 27.2358 13.4076 28.5586L13.4018 28.7313L13.4018 29.3618L8.4608 29.3618C6.98475 29.3606 5.76698 28.2284 5.67819 26.7847ZM5.86255 5.37242L5.86255 26.6173C5.86404 27.9632 6.9166 29.0811 8.27404 29.1765L8.44699 29.1834L13.2138 29.1834L13.2138 28.741C13.2138 27.3304 14.293 26.1754 15.6706 26.0162L15.8354 26.0025L16.0046 25.998C17.4785 26.0003 18.695 27.1329 18.7824 28.575L18.7874 28.7454L18.7874 29.1834L23.5413 29.1834C24.8583 29.1805 25.9361 28.2165 26.1134 26.9781L26.1329 26.7995L26.1387 26.6272L26.1387 5.38198C26.1372 4.0375 25.0847 2.91851 23.7272 2.82309L23.5515 2.81751L18.7874 2.81751L18.7874 3.25868C18.7874 4.66922 17.7082 5.82424 16.3306 5.98344L16.1647 5.99721L15.9941 6.00294C14.522 5.99997 13.305 4.86762 13.2188 3.42483L13.2138 3.25425L13.2138 2.81751L8.46028 2.81751C7.14291 2.81895 6.06507 3.7832 5.88779 5.02159L5.86834 5.2002L5.86255 5.37242ZM6.53575 26.6172L6.53574 5.38725L6.54047 5.24289L6.55575 5.10253C6.69349 4.15745 7.50803 3.45664 8.46106 3.45559L12.5464 3.4557C12.6489 5.21936 14.1443 6.64123 15.9999 6.64123L16.1973 6.63503L16.3949 6.61879L16.4056 6.61758C18.0725 6.42809 19.3585 5.08828 19.4548 3.45559L23.5351 3.45559L23.6841 3.46019C24.6639 3.53251 25.4643 4.3516 25.4655 5.38264L25.4655 26.6124L25.4607 26.7568L25.4455 26.8971C25.3078 27.842 24.4934 28.543 23.5401 28.5453L19.4549 28.5453L19.4548 28.5437C19.3508 26.7815 17.857 25.3597 15.9999 25.3597L15.7964 25.3653L15.6064 25.3809L15.5957 25.3821C13.9283 25.5716 12.642 26.9121 12.5463 28.5453L8.46751 28.5453L8.31847 28.5396C7.33799 28.4679 6.53697 27.6497 6.53575 26.6172Z" fill="#FE9E12"/>
</svg>
