<svg width="21" height="20" viewBox="0 0 21 20" fill="none" xmlns="http://www.w3.org/2000/svg">
<path d="M10.5002 1.66699C15.1026 1.66699 18.8335 5.39799 18.8335 10.0004C18.8335 14.6027 15.1025 18.3337 10.5002 18.3337C6.76875 18.3337 3.64542 15.8813 2.5835 12.5004H4.66683" stroke="#2FDAC2" stroke-width="1.5" stroke-linecap="round" stroke-linejoin="round"/>
<path d="M10.5 6.6665V9.99984L12.1667 11.6665" stroke="#2FDAC2" stroke-width="1.5" stroke-linecap="round" stroke-linejoin="round"/>
<path d="M2.20404 9.1665C2.17929 9.44075 2.16663 9.71875 2.16663 9.99983M7.99996 1.6665C7.71529 1.76016 7.43721 1.8695 7.16663 1.99333M3.17446 5.83316C3.01371 6.14283 2.87038 6.46375 2.74579 6.79466M5.33954 3.14216C5.05254 3.37975 4.78071 3.63666 4.52596 3.91108" stroke="#2FDAC2" stroke-width="1.5" stroke-linecap="round" stroke-linejoin="round"/>
</svg>
